# xmcd
#
# Track frame offsets:
#	182
#	11415
#	24320
#	35802
#	48070
#	61620
#	75162
#	87572
#	102107
#	114587
#	127695
#	139062
#
# Disc length: 2025 seconds
#
# Revision: 0
# Processed by: cddbd v1.4PL0 Copyright (c) Steve Scherf et al.
# Submitted via: dBpowerAMP V4.0
#
DISCID=8207e70c
DTITLE=Marvin Gaye and Tammi Terrell - Easy
DYEAR=1900
DGENRE=
TTITLE0=Good Lovin' Ain't Easy To Come By
TTITLE1=California Soul
TTITLE2=Love Woke Me Up This Morning
TTITLE3=This Poor Heart of Mine
TTITLE4=I'm Your Puppet
TTITLE5=The Onion Song
TTITLE6=What You Gave Me
TTITLE7=Baby I Need Your Loving
TTITLE8=I Can't Believe You Love Me
TTITLE9=How You Gonna Keep It (After You Get It)
TTITLE10=More, More, More
TTITLE11=Satisfied Feeling
EXTD=
EXTT0=
EXTT1=
EXTT2=
EXTT3=
EXTT4=
EXTT5=
EXTT6=
EXTT7=
EXTT8=
EXTT9=
EXTT10=
EXTT11=
PLAYORDER=
